<svg width="45" height="32" viewBox="0 0 45 32" fill="none" xmlns="http://www.w3.org/2000/svg">
<path d="M3.776 31.306C2.61067 31.2047 1.88867 30.888 1.61 30.356C1.33133 29.824 1.192 29.14 1.192 28.304C1.192 27.392 1.382 26.2773 1.762 24.96C2.142 23.6173 2.61067 22.1607 3.168 20.59C3.75067 19.0193 4.33333 17.4487 4.916 15.878C4.612 15.9033 4.28267 15.9413 3.928 15.992C3.59867 16.0173 3.18067 16.068 2.674 16.144C2.16733 16.1947 1.50867 16.2833 0.698 16.41C0.748667 15.7513 0.989334 15.2447 1.42 14.89C1.876 14.51 2.47133 14.2313 3.206 14.054C3.94067 13.8767 4.764 13.7753 5.676 13.75C6.38533 11.7993 7.10733 9.89933 7.842 8.05C8.602 6.17533 9.34933 4.46533 10.084 2.92C9.83067 2.89467 9.57733 2.882 9.324 2.882C9.096 2.85666 8.85533 2.844 8.602 2.844C6.98067 2.844 5.72667 3.00866 4.84 3.338C3.95333 3.66733 3.34533 4.174 3.016 4.858C2.68667 5.542 2.522 6.416 2.522 7.48C2.522 8.03733 2.56 8.55667 2.636 9.038C2.712 9.494 2.83867 9.97533 3.016 10.482C2.15467 10.33 1.52133 10.0007 1.116 9.494C0.710667 8.962 0.508 8.30333 0.508 7.518C0.508 6.20067 0.976667 5.048 1.914 4.06C2.85133 3.04667 4.10533 2.26133 5.676 1.704C7.272 1.12133 9.03267 0.829999 10.958 0.829999C12.3007 0.829999 13.5927 0.931332 14.834 1.134C16.1007 1.31133 17.3293 1.4 18.52 1.4C19.052 1.4 19.5333 1.37467 19.964 1.324C20.42 1.248 20.876 1.14667 21.332 1.02C20.3947 2.084 19.6093 2.79333 18.976 3.148C18.3427 3.50266 17.6967 3.68 17.038 3.68C16.4553 3.68 15.6953 3.604 14.758 3.452C13.846 3.27466 12.8073 3.13533 11.642 3.034C11.3127 3.87 10.9453 4.88333 10.54 6.074C10.1347 7.23933 9.71667 8.49333 9.286 9.836C8.85533 11.1533 8.42467 12.4707 7.994 13.788C9.26067 13.864 10.4513 13.978 11.566 14.13C12.706 14.282 13.732 14.3707 14.644 14.396C14.4413 14.7 14.2007 14.9407 13.922 15.118C13.6687 15.27 13.3013 15.384 12.82 15.46C12.3387 15.536 11.6673 15.5993 10.806 15.65C9.97 15.6753 8.84267 15.7007 7.424 15.726C7.272 16.258 7.082 16.8913 6.854 17.626C6.626 18.3607 6.42333 19.0573 6.246 19.716C6.06867 20.3747 5.92933 20.856 5.828 21.16C5.27067 23.1107 4.78933 24.9347 4.384 26.632C4.004 28.3293 3.80133 29.8873 3.776 31.306ZM16.1821 28.38C15.8528 28.38 15.5614 28.2913 15.3081 28.114C15.0801 27.962 14.9661 27.7087 14.9661 27.354C14.9661 27.0753 15.0801 26.822 15.3081 26.594C15.5361 26.3407 15.8148 26.1507 16.1441 26.024C16.4988 25.872 16.8408 25.796 17.1701 25.796C17.4741 25.796 17.7148 25.8593 17.8921 25.986C18.0694 26.1127 18.1581 26.3533 18.1581 26.708C18.1581 26.9613 18.0568 27.2147 17.8541 27.468C17.6768 27.7213 17.4361 27.9367 17.1321 28.114C16.8281 28.2913 16.5114 28.38 16.1821 28.38ZM23.4351 31.306C22.8777 30.9767 22.5231 30.622 22.3711 30.242C22.2191 29.8873 22.1431 29.5833 22.1431 29.33C22.1431 28.6207 22.3964 27.658 22.9031 26.442C23.4351 25.226 24.1317 23.8453 24.9931 22.3C25.8797 20.7293 26.8551 19.108 27.9191 17.436C26.9817 17.36 26.1837 17.3093 25.5251 17.284C24.8664 17.2587 24.2964 17.246 23.8151 17.246H22.4851C22.7637 16.5113 23.2451 16.0047 23.9291 15.726C24.6384 15.422 25.4744 15.27 26.4371 15.27C26.8677 15.27 27.3111 15.2953 27.7671 15.346C28.2231 15.3967 28.6917 15.46 29.1731 15.536C30.4651 13.5853 31.7824 11.698 33.1251 9.874C34.4931 8.02467 35.7597 6.39067 36.9251 4.972C38.1157 3.528 39.1037 2.43867 39.8891 1.704C40.6237 0.994666 41.2317 0.639999 41.7131 0.639999C41.9917 0.639999 42.2957 0.753999 42.6251 0.981999C42.9797 1.18467 43.3471 1.476 43.7271 1.856C43.4737 2.05867 43.1444 2.60333 42.7391 3.49C42.3591 4.35133 41.9411 5.44067 41.4851 6.758C41.0544 8.07533 40.6237 9.51933 40.1931 11.09C39.7624 12.6607 39.3571 14.2693 38.9771 15.916C38.6224 17.5373 38.3311 19.0827 38.1031 20.552C37.9004 22.0213 37.7991 23.3133 37.7991 24.428C37.7991 25.3907 37.9004 26.138 38.1031 26.67C38.3311 27.202 38.6984 27.468 39.2051 27.468C39.8637 27.468 40.6111 27.012 41.4471 26.1C42.2831 25.188 43.1951 23.7693 44.1831 21.844L44.5631 22.224C43.8031 24.2507 42.8277 25.91 41.6371 27.202C40.4717 28.494 39.2557 29.14 37.9891 29.14C36.9504 29.14 36.1904 28.684 35.7091 27.772C35.2531 26.8347 35.0251 25.5933 35.0251 24.048C35.0251 23.2373 35.0757 22.3507 35.1771 21.388C35.3037 20.4253 35.4684 19.4247 35.6711 18.386C34.5564 18.2087 33.5304 18.0693 32.5931 17.968C31.6811 17.8413 30.8324 17.7273 30.0471 17.626C28.8564 19.83 27.6911 22.0973 26.5511 24.428C25.4364 26.7587 24.3977 29.0513 23.4351 31.306ZM35.9371 17.056C36.3171 15.384 36.7604 13.6993 37.2671 12.002C37.7737 10.2793 38.3057 8.64533 38.8631 7.1C39.4457 5.55467 39.9904 4.19933 40.4971 3.034C39.7117 3.51533 38.7997 4.37667 37.7611 5.618C36.7477 6.834 35.6711 8.32867 34.5311 10.102C33.3911 11.85 32.2257 13.7753 31.0351 15.878C31.8964 16.0553 32.7451 16.258 33.5811 16.486C34.4424 16.6887 35.2277 16.8787 35.9371 17.056Z" fill="#258D64"/>
</svg>
