<svg width="23" height="23" viewBox="0 0 23 23" fill="none" xmlns="http://www.w3.org/2000/svg">
<path d="M11.3137 22.9412L9.54595 21.1734C7.59333 19.2208 7.59333 16.0549 9.54595 14.1023L11.3137 12.3346L13.0815 14.1023C15.0341 16.0549 15.0341 19.2208 13.0815 21.1734L11.3137 22.9412Z" fill="#5ED4A5"/>
<path d="M20.8597 13.3954C18.9071 15.348 15.7412 15.348 13.7886 13.3954L12.0209 11.6276L13.7886 9.85984C15.7412 7.90722 18.9071 7.90722 20.8597 9.85984L22.6275 11.6276L20.8597 13.3954Z" fill="#66A3FF"/>
<path d="M11.3137 10.9204L9.54595 9.15264C7.59333 7.20002 7.59333 4.0342 9.54595 2.08158L11.3137 0.313809L13.0815 2.08158C15.0341 4.0342 15.0341 7.20002 13.0815 9.15264L11.3137 10.9204Z" fill="#FCA5A5"/>
<path d="M8.83882 13.3954C6.8862 15.348 3.72037 15.348 1.76775 13.3954L-1.70767e-05 11.6276L1.76775 9.85984C3.72037 7.90722 6.8862 7.90722 8.83882 9.85984L10.6066 11.6276L8.83882 13.3954Z" fill="#FFA64D"/>
</svg>
