<svg width="33" height="43" viewBox="0 0 33 43" fill="none" xmlns="http://www.w3.org/2000/svg">
<path d="M0.365692 0.0908737C-0.121897 0.368086 -0.121897 0.611696 0.365692 2.05656C1.1869 4.46747 2.47003 6.52556 4.30063 8.36525L4.98497 9.05407L4.61713 9.45729C3.77882 10.3729 3.38533 11.0534 2.89774 12.473C2.27328 14.2791 2.03376 15.934 2.03376 18.3869C2.03376 20.2434 2.13641 21.4782 2.4187 23.0239C3.26557 27.6357 5.30147 31.8947 8.58629 35.9437C10.6393 38.4722 15.7119 43 16.4818 43C16.6529 43 16.9694 42.8152 17.5254 42.3952C24.9077 36.8257 29.3217 30.1642 30.5963 22.6711C31.1523 19.4033 31.0325 15.5896 30.2969 13.1787C29.7237 11.3054 29.3901 10.6333 28.509 9.6337L27.9958 9.04568L28.6801 8.36525C29.9718 7.06319 30.9213 5.76113 31.7511 4.13145C32.2558 3.14021 33 1.08212 33 0.678898C33 0.233678 32.4354 -0.127538 32.0334 0.0488701C31.9307 0.0992724 31.58 0.376484 31.2464 0.678898C29.9633 1.82975 28.7828 2.62779 27.2002 3.41742C25.8658 4.08945 24.788 4.46747 22.9916 4.92109C20.7162 5.48392 19.433 6.16435 18.2012 7.4412C17.5939 8.06283 16.8753 9.05408 16.67 9.5497C16.5246 9.88571 16.4562 9.88571 16.3107 9.5497C16.1054 9.05408 15.3869 8.06283 14.7795 7.4412C13.5477 6.16435 12.2732 5.49232 9.98918 4.91269C9.16797 4.71108 8.38099 4.49267 8.24412 4.44227C8.10725 4.39187 7.86773 4.34987 7.7052 4.34146C7.14063 4.32466 6.7899 4.96309 7.12352 5.42511C7.26894 5.63512 8.09014 5.91233 9.64701 6.29035C10.9729 6.60957 11.8454 6.94558 12.5298 7.4076C13.9327 8.35685 14.8565 9.5329 15.3783 11.0702C15.6178 11.7758 15.8403 13.1787 15.7119 13.1787C15.5323 13.1787 8.70605 9.90251 8.06448 9.50769C5.66075 8.02083 3.57352 5.75273 2.52135 3.49303C2.28184 2.9722 2.29039 2.9722 2.91485 3.41742C3.7446 4.00545 5.06195 4.69428 5.3528 4.69428C5.8746 4.69428 6.21677 4.13985 5.9687 3.68623C5.91737 3.59383 5.60087 3.36702 5.2587 3.17381C3.87292 2.39258 3.0175 1.77935 1.40931 0.410088C0.904607 -0.0183316 0.682198 -0.0855342 0.365692 0.0908737ZM30.3824 3.61903C29.142 6.06354 27.32 8.02083 24.9163 9.50769C24.2747 9.90251 17.4484 13.1787 17.2688 13.1787C17.1405 13.1787 17.3629 11.7758 17.6024 11.0702C17.9959 9.91932 18.4236 9.23888 19.3389 8.32324C20.3483 7.3068 21.4347 6.74397 23.1284 6.34076C25.8059 5.71073 27.8076 4.88749 29.758 3.60223C30.2455 3.28302 30.6561 3.02261 30.6733 3.02261C30.6818 3.01421 30.5535 3.29142 30.3824 3.61903ZM6.84978 10.4233C7.14063 10.6165 7.85918 11.0366 8.44942 11.3474C9.26207 11.7758 9.47592 11.9186 9.34761 11.9606C8.91135 12.0866 8.25267 12.473 8.04737 12.7082C7.92761 12.851 7.73087 13.1703 7.61111 13.4223C7.43147 13.8003 7.40581 13.9599 7.44002 14.4723C7.49135 15.178 7.7052 15.64 8.20135 16.1188C9.45026 17.3032 11.5974 16.8244 12.2133 15.2116C12.4357 14.6487 12.4186 13.8171 12.1791 13.3635C12.1021 13.2207 12.0679 13.0947 12.1021 13.1031C12.1448 13.1031 12.9575 13.4727 13.9241 13.9263C15.9429 14.8671 15.8488 14.7663 15.5494 15.8416C14.8822 18.2441 12.7351 19.9326 10.203 20.0418C9.1252 20.0922 8.32966 19.9326 7.3887 19.4873C5.47255 18.5633 4.2493 16.7824 4.11244 14.6907C4.02689 13.4811 4.40328 12.1286 5.09617 11.1458C5.54099 10.5157 6.07135 9.97812 6.19966 10.0201C6.25954 10.0453 6.55039 10.2301 6.84978 10.4233ZM27.4654 10.6249C29.9547 13.5147 29.0394 17.8325 25.5921 19.4873C24.6596 19.9326 23.8555 20.0922 22.7777 20.0418C20.2542 19.941 18.0986 18.2441 17.4313 15.8416C17.1319 14.7663 17.0464 14.8671 19.0566 13.9347C20.0233 13.4811 20.8188 13.1199 20.8359 13.1367C20.8445 13.1451 20.7931 13.2963 20.7247 13.4643C20.5622 13.8507 20.5451 14.6571 20.6905 15.0855C21.0156 16.06 21.8282 16.69 22.8718 16.774C23.5733 16.8244 24.1549 16.6312 24.6768 16.1692C25.2841 15.6316 25.5151 15.1275 25.5151 14.3547C25.5065 13.1703 24.8735 12.3554 23.6331 11.9606C23.5048 11.9186 23.7101 11.7842 24.5313 11.3474C25.1216 11.0366 25.8658 10.5997 26.1994 10.3813C26.5245 10.1629 26.8324 9.99492 26.8837 10.0117C26.9265 10.0285 27.1917 10.3057 27.4654 10.6249ZM10.6307 13.6407C10.8703 13.8843 10.9301 14.0019 10.9301 14.2791C10.9301 14.9175 10.511 15.3628 9.90364 15.3628C9.29629 15.3628 8.87713 14.9343 8.87713 14.3211C8.87713 13.9935 8.9199 13.8927 9.17653 13.6407C9.44171 13.3803 9.5358 13.3467 9.90364 13.3467C10.2715 13.3467 10.3656 13.3803 10.6307 13.6407ZM23.5733 13.4643C23.8641 13.6155 24.1036 14.0187 24.1036 14.3379C24.1036 15.178 23.1113 15.6652 22.427 15.1528C21.871 14.7411 21.8624 14.0103 22.4013 13.5567C22.6922 13.3215 23.2311 13.2711 23.5733 13.4643ZM16.7812 17.9417C17.0977 18.5381 17.7051 19.2605 18.3295 19.7562L18.877 20.193L17.6623 21.3942L16.4476 22.5871L15.25 21.411L14.0524 20.2266L14.3091 20.0502C14.8138 19.7058 15.7718 18.6641 16.0969 18.1097C16.2765 17.7989 16.4562 17.5469 16.4989 17.5469C16.5417 17.5469 16.67 17.7233 16.7812 17.9417ZM4.57436 19.1429C5.47256 20.1006 6.40496 20.697 7.594 21.1002C8.92846 21.5454 10.4853 21.6042 11.7856 21.243C12.1363 21.1422 12.5212 21.0498 12.641 21.0246C12.8292 20.991 13.0772 21.201 14.5229 22.6207C16.0456 24.1244 16.2166 24.2672 16.4818 24.2672C16.7556 24.2672 16.9352 24.1244 18.4921 22.5955L20.2115 20.9322L20.6819 21.0918C22.8975 21.8731 25.421 21.4866 27.397 20.0586C27.9701 19.6554 28.9111 18.6473 29.2276 18.1097L29.4928 17.6729V18.7733C29.4928 19.7898 29.3816 21.3522 29.2789 21.8058C29.2533 21.9319 29.1506 22.0159 28.9966 22.0495C26.3705 22.6123 23.3594 24.1076 21.5972 25.7204C21.0241 26.2412 20.9557 26.5605 21.3235 26.9133C21.6828 27.2745 21.9993 27.1989 22.7349 26.6025C24.4372 25.2332 26.8581 24.0067 28.74 23.5615C28.971 23.5111 28.971 23.5195 28.9196 23.7799C28.7742 24.536 28.1498 26.5269 27.7221 27.5769C25.9086 32.0879 22.7948 36.2125 18.4664 39.8331C17.9275 40.2867 17.457 40.6227 17.4228 40.5891C17.3886 40.5555 17.3201 39.9927 17.2688 39.3458C17.0122 35.9437 17.8762 32.6927 19.7923 29.8534C20.2628 29.1478 20.3483 28.9798 20.3056 28.7614C20.2286 28.4001 19.9719 28.1817 19.6212 28.1817C19.2363 28.1817 19.0823 28.3245 18.4664 29.257C17.688 30.4414 17.2774 31.2899 16.5246 33.2556C16.4989 33.3312 16.3535 33.0624 16.191 32.6255C14.215 27.3249 9.68123 23.3599 4.12099 22.0915L3.68473 21.9907L3.62485 21.4698C3.50509 20.4618 3.41099 18.4205 3.46232 18.0677L3.51364 17.6981L3.76171 18.1181C3.89858 18.3533 4.26641 18.8153 4.57436 19.1429ZM5.11328 23.8471C10.836 25.6868 14.8993 30.5674 15.6435 36.4813C15.7547 37.3801 15.7119 40.1271 15.5751 40.4715C15.4981 40.6563 15.4724 40.6479 14.6427 39.9675C13.5221 39.035 11.3493 36.9517 10.4254 35.9017C7.44858 32.5163 5.34424 28.7194 4.30063 24.8216C4.00979 23.7379 3.95846 23.5111 4.044 23.5111C4.06111 23.5111 4.5487 23.6623 5.11328 23.8471Z" fill="#FFA64D"/>
</svg>
